<svg width="81" height="64" viewBox="0 0 81 64" fill="none" xmlns="http://www.w3.org/2000/svg">
<g filter="url(#filter0_di_15_118)">
<path d="M44.6132 3.84576C41.6125 -0.0260517 38.6838 -0.0080645 36.5334 0.000929251L9.86454 0.149326C7.71862 0.162817 5.98658 1.9121 6.00008 4.05711L6.02257 7.94241L6.04507 12.4663L6.24751 49.5745C6.26101 51.7195 8.01104 53.4508 10.157 53.4373L73.1356 53.091C75.2815 53.0775 77.0135 51.3282 77 49.1832L76.7931 11.441C76.7796 9.29597 75.0296 7.56467 72.8836 7.57816L48.5182 7.71307C46.3768 7.72206 45.9269 5.54108 44.6132 3.84576Z" fill="url(#paint0_linear_15_118)" shape-rendering="crispEdges"/>
</g>
<g filter="url(#filter1_di_15_118)">
<path d="M42.6132 5.84576C39.6125 1.97395 36.6838 1.99194 34.5334 2.00093L7.86454 2.14933C5.71862 2.16282 3.98658 3.9121 4.00008 6.05711L4.02257 9.94241L4.04507 14.4663L4.24751 51.5745C4.26101 53.7195 6.01104 55.4508 8.15696 55.4373L71.1356 55.091C73.2815 55.0775 75.0135 53.3282 75 51.1832L74.7931 13.441C74.7796 11.296 73.0296 9.56467 70.8836 9.57816L46.5182 9.71307C44.3768 9.72206 43.9269 7.54108 42.6132 5.84576Z" fill="#770CF2"/>
</g>
<path d="M12.9077 36.753L12.4803 32.7732C12.4218 32.2291 12.7008 31.703 13.1866 31.4466L26.1926 24.5709C27.0294 24.1302 28.0506 24.6699 28.1496 25.6097L28.46 28.4742C28.523 29.0453 28.2081 29.5939 27.6862 29.8368L21.9053 32.4764C20.7356 33.0116 20.9201 34.7294 22.1797 35.0037L28.3881 36.3527C28.9504 36.4741 29.3733 36.9463 29.4363 37.5174L29.7467 40.4134C29.8502 41.3533 28.9684 42.0997 28.0551 41.8479L13.8839 37.8997C13.3531 37.7513 12.9662 37.2971 12.9077 36.753Z" fill="#384955"/>
<path d="M42.4198 16.6025C44.0933 16.4226 45.38 18.046 44.8176 19.6334L35.2802 46.6866C34.9878 47.514 34.2455 48.1031 33.3682 48.1975C31.6992 48.3774 30.408 46.754 30.9704 45.1666L40.5078 18.1134C40.8002 17.286 41.5425 16.6969 42.4198 16.6025Z" fill="#384955"/>
<path d="M49.1815 34.2707L56.3166 31.006C57.1353 30.6327 57.0049 29.4276 56.1276 29.2387L48.4572 27.5703C48.0613 27.4849 47.7689 27.1566 47.7239 26.7564L47.319 22.9835C47.247 22.327 47.8633 21.8009 48.5022 21.9807L63.5056 26.1583C63.8745 26.2618 64.1445 26.581 64.185 26.9588L64.6708 31.4826C64.7113 31.8649 64.5179 32.2336 64.176 32.4135L50.4051 39.6939C49.8203 40.0042 49.105 39.6265 49.033 38.9654L48.6281 35.224C48.5966 34.8193 48.8126 34.4371 49.1815 34.2707Z" fill="#384955"/>
<path d="M13.7805 36.3347L13.2226 31.1723C13.2001 30.9835 13.2991 30.8036 13.4656 30.7137L28.1451 22.9566C28.433 22.8037 28.7839 22.9925 28.8199 23.3163L29.3373 28.092C29.3598 28.2898 29.2518 28.4787 29.0719 28.5597L20.3262 32.5619C19.9213 32.7462 19.9843 33.3398 20.4207 33.4343L29.8187 35.4803C30.0121 35.5208 30.1561 35.6827 30.1786 35.8806L30.6959 40.6922C30.7319 41.016 30.426 41.2723 30.1111 41.1869L14.1179 36.7305C13.9334 36.681 13.803 36.5236 13.7805 36.3347Z" fill="white"/>
<path d="M43.9719 15.7076C45.6454 15.5277 46.9321 17.1511 46.3697 18.7385L36.8323 45.7917C36.5399 46.6191 35.7976 47.2082 34.9203 47.3026C33.2512 47.4825 31.9601 45.8591 32.5224 44.2717L42.0599 17.2185C42.3523 16.3911 43.0946 15.802 43.9719 15.7076Z" fill="white"/>
<path d="M50.1262 33.1779L57.8372 29.6524C58.44 29.3781 58.3455 28.4967 57.6977 28.3528L49.4154 26.5496C48.952 26.4506 48.6056 26.0639 48.5561 25.5917L48.1872 22.1786C48.1018 21.4051 48.8261 20.7891 49.5774 21.0004L64.2434 25.0836C64.6798 25.205 64.9947 25.5782 65.0442 26.0279L65.5076 30.3269C65.5571 30.7766 65.3276 31.2083 64.9273 31.4197L51.4714 38.5337C50.783 38.898 49.9463 38.4528 49.8608 37.6793L49.4964 34.2977C49.4424 33.8255 49.6988 33.3758 50.1262 33.1779Z" fill="white"/>
<path d="M44.3453 19.4715C44.1788 20.1145 43.9584 20.7351 43.6794 21.3377C43.414 21.9088 44.3408 22.237 44.6017 21.6659C44.8806 21.0634 45.1011 20.4428 45.2675 19.7997C45.425 19.1972 44.5027 18.8644 44.3453 19.4715Z" fill="white"/>
<path d="M44.6917 17.6412C44.7052 17.6682 44.7187 17.6952 44.7322 17.7222C44.7412 17.7402 44.7457 17.7582 44.7547 17.7762C44.7322 17.7087 44.7277 17.6907 44.7367 17.7267C44.7547 17.7896 44.7681 17.8481 44.7726 17.9156C44.8041 18.1719 45.1056 18.3607 45.3485 18.3023C45.6229 18.2348 45.7669 18.001 45.7354 17.7267C45.7129 17.5513 45.6544 17.3714 45.5734 17.2185C45.452 16.9937 45.155 16.8633 44.9166 16.9937C44.6917 17.1106 44.5612 17.4029 44.6917 17.6412Z" fill="white"/>
<path d="M62.4709 26.0234C62.7903 26.1358 63.1097 26.2437 63.4292 26.3562C64.0275 26.563 64.3559 25.6412 63.7576 25.4343C63.4382 25.3219 63.1187 25.214 62.7993 25.1015C62.201 24.8947 61.8726 25.8165 62.4709 26.0234Z" fill="white"/>
<path d="M60.6579 24.7418C59.8031 24.445 58.9394 24.1797 58.0666 23.9549C57.4593 23.7975 57.1263 24.7193 57.7382 24.8767C58.6109 25.1061 59.4747 25.3669 60.3295 25.6637C60.9278 25.875 61.2562 24.9487 60.6579 24.7418Z" fill="white"/>
<path d="M35.7706 43.7231C35.6761 44.0469 35.5816 44.3706 35.4871 44.6944C35.4152 44.9462 35.5231 45.2296 35.7841 45.3195C36.0225 45.4049 36.3374 45.279 36.4094 45.0227C36.5039 44.6989 36.5983 44.3751 36.6928 44.0514C36.7648 43.7995 36.6568 43.5162 36.3959 43.4263C36.1575 43.3409 35.847 43.4668 35.7706 43.7231Z" fill="white"/>
<path d="M13.8749 30.2235C14.4643 29.8413 15.0671 29.4905 15.688 29.1667C16.2458 28.8744 15.8184 27.993 15.2561 28.2853C14.6352 28.6091 14.0279 28.9599 13.4431 29.3421C13.2181 29.486 13.0967 29.7378 13.2181 29.9986C13.3216 30.219 13.6545 30.3674 13.8749 30.2235Z" fill="white"/>
<path d="M16.7677 28.5687C16.8801 28.5102 16.9926 28.4562 17.1051 28.4068C17.1591 28.3843 17.213 28.3618 17.267 28.3438C17.321 28.3258 17.33 28.3213 17.2895 28.3348C17.321 28.3258 17.3525 28.3168 17.384 28.3033C17.6269 28.2314 17.8384 28.002 17.7709 27.7277C17.7124 27.4894 17.456 27.2646 17.1951 27.341C16.8981 27.4309 16.6102 27.5389 16.3358 27.6873C16.1108 27.8087 15.9804 28.1055 16.1108 28.3438C16.2323 28.5731 16.5247 28.6991 16.7677 28.5687Z" fill="white"/>
<path d="M65.7145 29.6839C65.6831 29.9447 65.6966 30.219 65.755 30.4753C65.8135 30.7227 66.07 30.925 66.3309 30.8621C66.5828 30.7991 66.7763 30.5518 66.7178 30.2865C66.7088 30.2415 66.6953 30.192 66.6908 30.1471C66.6863 30.1156 66.6818 30.0841 66.6773 30.0526C66.6728 29.9987 66.6728 29.9897 66.6728 30.0211C66.6728 30.0706 66.6728 29.9357 66.6773 29.9222C66.6818 29.8682 66.6863 29.8098 66.6908 29.7558C66.7223 29.4995 66.4928 29.2387 66.2364 29.2297C65.962 29.2252 65.746 29.4141 65.7145 29.6839Z" fill="white"/>
<path d="M61.6971 35.5073C61.8636 35.4219 62.0255 35.3364 62.192 35.2465C62.4169 35.1251 62.5474 34.8283 62.4169 34.59C62.291 34.3606 62.003 34.2392 61.7601 34.3651C61.5936 34.4506 61.4317 34.536 61.2652 34.6259C61.0403 34.7474 60.9098 35.0441 61.0403 35.2825C61.1663 35.5118 61.4542 35.6377 61.6971 35.5073Z" fill="white"/>
<path d="M63.1637 34.7608C63.7171 34.4281 64.2884 34.1403 64.8823 33.8885C65.4626 33.6456 65.0307 32.7642 64.4504 33.0071C63.8565 33.2589 63.2852 33.5467 62.7318 33.8795C62.1965 34.2077 62.6239 35.0891 63.1637 34.7608Z" fill="white"/>
<path d="M40.6878 37.6163C40.2424 39.2712 39.7025 40.8991 39.0682 42.491C38.8343 43.0801 39.761 43.4038 39.9904 42.8192C40.6248 41.2228 41.1646 39.5995 41.61 37.9446C41.772 37.3375 40.8497 37.0048 40.6878 37.6163Z" fill="white"/>
<path d="M41.3941 35.7816C41.2906 36.0469 41.1826 36.3168 41.0791 36.5821C40.9847 36.8294 41.1331 37.1217 41.3761 37.2071C41.6325 37.2971 41.9069 37.1577 42.0014 36.9103C42.1049 36.645 42.2128 36.3752 42.3163 36.1099C42.4108 35.8626 42.2623 35.5703 42.0194 35.4848C41.763 35.3949 41.493 35.5343 41.3941 35.7816Z" fill="white"/>
<path d="M38.8612 43.5612C38.7398 43.7366 38.6678 43.939 38.6543 44.1503C38.6363 44.4066 38.8387 44.6675 39.1087 44.6765C39.3741 44.6855 39.617 44.4966 39.635 44.2223C39.6395 44.1818 39.644 44.1458 39.6485 44.1098C39.6395 44.1548 39.6305 44.1953 39.6215 44.2403C39.6305 44.2043 39.644 44.1683 39.6575 44.1323C39.68 44.0874 39.671 44.0964 39.6395 44.1683C39.6485 44.1503 39.662 44.1368 39.671 44.1188C39.8195 43.9075 39.77 43.5792 39.5451 43.4353C39.3156 43.2959 39.0187 43.3409 38.8612 43.5612Z" fill="white"/>
<defs>
<filter id="filter0_di_15_118" x="2" y="0" width="79.0001" height="61.4374" filterUnits="userSpaceOnUse" color-interpolation-filters="sRGB">
<feFlood flood-opacity="0" result="BackgroundImageFix"/>
<feColorMatrix in="SourceAlpha" type="matrix" values="0 0 0 0 0 0 0 0 0 0 0 0 0 0 0 0 0 0 127 0" result="hardAlpha"/>
<feOffset dy="4"/>
<feGaussianBlur stdDeviation="2"/>
<feComposite in2="hardAlpha" operator="out"/>
<feColorMatrix type="matrix" values="0 0 0 0 0 0 0 0 0 0 0 0 0 0 0 0 0 0 0.25 0"/>
<feBlend mode="normal" in2="BackgroundImageFix" result="effect1_dropShadow_15_118"/>
<feBlend mode="normal" in="SourceGraphic" in2="effect1_dropShadow_15_118" result="shape"/>
<feColorMatrix in="SourceAlpha" type="matrix" values="0 0 0 0 0 0 0 0 0 0 0 0 0 0 0 0 0 0 127 0" result="hardAlpha"/>
<feOffset dy="4"/>
<feGaussianBlur stdDeviation="2"/>
<feComposite in2="hardAlpha" operator="arithmetic" k2="-1" k3="1"/>
<feColorMatrix type="matrix" values="0 0 0 0 0 0 0 0 0 0 0 0 0 0 0 0 0 0 0.25 0"/>
<feBlend mode="normal" in2="shape" result="effect2_innerShadow_15_118"/>
</filter>
<filter id="filter1_di_15_118" x="0" y="2" width="79.0001" height="61.4374" filterUnits="userSpaceOnUse" color-interpolation-filters="sRGB">
<feFlood flood-opacity="0" result="BackgroundImageFix"/>
<feColorMatrix in="SourceAlpha" type="matrix" values="0 0 0 0 0 0 0 0 0 0 0 0 0 0 0 0 0 0 127 0" result="hardAlpha"/>
<feOffset dy="4"/>
<feGaussianBlur stdDeviation="2"/>
<feComposite in2="hardAlpha" operator="out"/>
<feColorMatrix type="matrix" values="0 0 0 0 0 0 0 0 0 0 0 0 0 0 0 0 0 0 0.25 0"/>
<feBlend mode="normal" in2="BackgroundImageFix" result="effect1_dropShadow_15_118"/>
<feBlend mode="normal" in="SourceGraphic" in2="effect1_dropShadow_15_118" result="shape"/>
<feColorMatrix in="SourceAlpha" type="matrix" values="0 0 0 0 0 0 0 0 0 0 0 0 0 0 0 0 0 0 127 0" result="hardAlpha"/>
<feOffset dy="4"/>
<feGaussianBlur stdDeviation="2"/>
<feComposite in2="hardAlpha" operator="arithmetic" k2="-1" k3="1"/>
<feColorMatrix type="matrix" values="0 0 0 0 0 0 0 0 0 0 0 0 0 0 0 0 0 0 0.25 0"/>
<feBlend mode="normal" in2="shape" result="effect2_innerShadow_15_118"/>
</filter>
<linearGradient id="paint0_linear_15_118" x1="41.5001" y1="0" x2="60" y2="60.5" gradientUnits="userSpaceOnUse">
<stop stop-color="white"/>
<stop offset="1" stop-color="#4D4C4F" stop-opacity="0"/>
</linearGradient>
</defs>
</svg>
